<svg version="1" xmlns="http://www.w3.org/2000/svg" width="556" height="556" viewBox="0 0 417 417"><path d="M190.9.4c-.2.2-3.3.6-6.9 1-3.6.3-7.5.8-8.6 1-1.2.2-3.7.7-5.5 1-1.9.3-8.7 1.9-15.1 3.5-41.7 10.8-82.1 37-108.6 70.6-8.8 11.1-8.4 10.6-11.6 15.4-18 27.6-29.4 58.4-33.3 90.2-1.9 15.5-.6 54 2.2 63.9.2.8.7 2.8 1 4.5.8 5.1 1.2 6.9 2.6 11.5.7 2.5 1.3 4.7 1.4 5 .8 4.7 8.4 23.5 13.5 33.5 32.3 64 93 106.2 164.4 114.2 12.4 1.4 42.7.7 52.7-1.2 1.3-.3 3.9-.7 5.9-1 16-2.4 38.9-10 56.3-18.6 20.2-10.1 37.3-22.4 53.8-38.9 22.3-22.2 37-44.8 48.2-74 3.6-9.4 8.2-25.3 9.3-32 .3-1.9.9-5.3 1.4-7.5 2.4-10.8 3.3-41.2 1.7-56-7.5-70.9-50.8-133.1-115.2-165.2C283.4 12.7 258 4.6 242 2.6c-2.5-.3-5.6-.9-7-1.2-2.7-.7-43.5-1.6-44.1-1z"/></svg>